<svg xmlns="http://www.w3.org/2000/svg" viewBox="0 0 560 320" width="560" height="320" role="img" aria-label="Skruv med mutter">
<title>Skruv med mutter</title>
<rect width="560" height="320" fill="#f4f5f7"/>
<text x="280.0" y="24" text-anchor="middle" font-family="sans-serif" font-size="15" font-weight="600" fill="#22262c">Skruv med mutter</text>
<polygon points="143.3,168.9 133.5,165.2 133.5,200.8" fill="#27486a" stroke="#27486a" stroke-width="0.6"/>
<polygon points="153.3,159.1 144.7,151.8 143.6,154.7" fill="#1f3a54" stroke="#1f3a54" stroke-width="0.6"/>
<polygon points="151.8,161.8 143.6,154.7 142.1,157.4" fill="#1b334a" stroke="#1b334a" stroke-width="0.6"/>
<polygon points="154.4,156.2 145.4,148.8 144.7,151.8" fill="#23405d" stroke="#23405d" stroke-width="0.6"/>
<polygon points="150.0,164.2 142.1,157.4 140.2,159.8" fill="#1a3147" stroke="#1a3147" stroke-width="0.6"/>
<polygon points="155.1,153.3 145.6,145.9 145.4,148.8" fill="#264666" stroke="#264666" stroke-width="0.6"/>
<polygon points="147.9,166.3 140.2,159.8 138.1,161.8" fill="#1a3147" stroke="#1a3147" stroke-width="0.6"/>
<polygon points="155.3,150.3 145.4,143.1 145.6,145.9" fill="#294b6d" stroke="#294b6d" stroke-width="0.6"/>
<polygon points="145.6,167.8 138.1,161.8 135.9,163.4" fill="#1a3147" stroke="#1a3147" stroke-width="0.6"/>
<polygon points="151.8,161.8 153.3,159.1 143.6,154.7" fill="#1b334a" stroke="#1b334a" stroke-width="0.6"/>
<polygon points="153.3,159.1 154.4,156.2 144.7,151.8" fill="#1f3a54" stroke="#1f3a54" stroke-width="0.6"/>
<polygon points="155.1,147.6 144.7,140.6 145.4,143.1" fill="#2b4f73" stroke="#2b4f73" stroke-width="0.6"/>
<polygon points="150.0,164.2 151.8,161.8 142.1,157.4" fill="#1a3147" stroke="#1a3147" stroke-width="0.6"/>
<polygon points="154.4,156.2 155.1,153.3 145.4,148.8" fill="#23405d" stroke="#23405d" stroke-width="0.6"/>
<polygon points="143.3,168.9 135.9,163.4 133.5,164.5" fill="#1a3147" stroke="#1a3147" stroke-width="0.6"/>
<polygon points="147.9,166.3 150.0,164.2 140.2,159.8" fill="#1a3147" stroke="#1a3147" stroke-width="0.6"/>
<polygon points="143.3,168.9 133.5,165.1 133.5,165.2" fill="#27486a" stroke="#27486a" stroke-width="0.6"/>
<polygon points="155.1,153.3 155.3,150.3 145.6,145.9" fill="#264666" stroke="#264666" stroke-width="0.6"/>
<polygon points="143.3,168.9 133.5,164.5 133.5,165.1" fill="#27486a" stroke="#27486a" stroke-width="0.6"/>
<polygon points="154.4,145.1 143.6,138.5 144.7,140.6" fill="#2c5277" stroke="#2c5277" stroke-width="0.6"/>
<polygon points="145.6,167.8 147.9,166.3 138.1,161.8" fill="#1a3147" stroke="#1a3147" stroke-width="0.6"/>
<polygon points="155.3,150.3 155.1,147.6 145.4,143.1" fill="#294b6d" stroke="#294b6d" stroke-width="0.6"/>
<polygon points="153.3,142.9 142.1,136.8 143.6,138.5" fill="#2d5379" stroke="#2d5379" stroke-width="0.6"/>
<polygon points="143.3,168.9 145.6,167.8 135.9,163.4" fill="#1a3147" stroke="#1a3147" stroke-width="0.6"/>
<polygon points="155.1,147.6 154.4,145.1 144.7,140.6" fill="#2b4f73" stroke="#2b4f73" stroke-width="0.6"/>
<polygon points="151.8,141.2 140.2,135.5 142.1,136.8" fill="#2d547a" stroke="#2d547a" stroke-width="0.6"/>
<polygon points="154.4,145.1 153.3,142.9 143.6,138.5" fill="#2c5277" stroke="#2c5277" stroke-width="0.6"/>
<polygon points="151.8,141.2 142.1,136.8 153.3,142.9" fill="#2d5379" stroke="#2d5379" stroke-width="0.6"/>
<polygon points="151.8,141.2 150.0,140.0 140.2,135.5" fill="#2d547a" stroke="#2d547a" stroke-width="0.6"/>
<polygon points="133.5,134.6 133.5,135.3 143.3,139.7" fill="#27486a" stroke="#27486a" stroke-width="0.6"/>
<polygon points="133.5,134.5 133.5,134.6 143.3,139.7" fill="#27486a" stroke="#27486a" stroke-width="0.6"/>
<polygon points="133.5,98.9 133.5,134.5 143.3,139.7" fill="#27486a" stroke="#27486a" stroke-width="0.6"/>
<polygon points="143.3,168.9 133.5,200.8 224.6,242.2" fill="#27486a" stroke="#27486a" stroke-width="0.6"/>
<polygon points="221.5,70.0 133.5,98.9 224.6,140.3" fill="#1a3147" stroke="#1a3147" stroke-width="0.6"/>
<polygon points="149.2,157.1 230.5,194.1 149.8,155.4" fill="#1f3a54" stroke="#1f3a54" stroke-width="0.6"/>
<polygon points="148.3,158.7 229.6,195.7 149.2,157.1" fill="#1b334a" stroke="#1b334a" stroke-width="0.6"/>
<polygon points="149.8,155.4 231.1,192.4 150.2,153.7" fill="#23405d" stroke="#23405d" stroke-width="0.6"/>
<polygon points="147.2,160.1 228.5,197.1 148.3,158.7" fill="#1a3147" stroke="#1a3147" stroke-width="0.6"/>
<polygon points="150.2,153.7 231.6,190.7 150.4,152.0" fill="#264666" stroke="#264666" stroke-width="0.6"/>
<polygon points="146.0,161.3 227.3,198.3 147.2,160.1" fill="#1a3147" stroke="#1a3147" stroke-width="0.6"/>
<polygon points="150.4,152.0 231.7,189.0 150.2,150.4" fill="#294b6d" stroke="#294b6d" stroke-width="0.6"/>
<polygon points="144.7,162.3 226.0,199.2 146.0,161.3" fill="#1a3147" stroke="#1a3147" stroke-width="0.6"/>
<polygon points="224.6,199.9 143.3,162.9 143.3,168.9" fill="#27486a" stroke="#27486a" stroke-width="0.6"/>
<polygon points="150.2,150.4 231.6,187.3 149.8,148.9" fill="#2b4f73" stroke="#2b4f73" stroke-width="0.6"/>
<polygon points="143.3,162.9 224.6,199.9 144.7,162.3" fill="#1a3147" stroke="#1a3147" stroke-width="0.6"/>
<polygon points="149.2,147.6 149.8,148.9 231.1,185.9" fill="#2c5277" stroke="#2c5277" stroke-width="0.6"/>
<polygon points="149.2,147.6 230.5,184.6 148.3,146.6" fill="#2d5379" stroke="#2d5379" stroke-width="0.6"/>
<polygon points="224.6,242.2 312.6,213.3 312.6,162.4" fill="#4885c1" stroke="#4885c1" stroke-width="0.6"/>
<polygon points="147.2,145.9 148.3,146.6 229.6,183.6" fill="#2d547a" stroke="#2d547a" stroke-width="0.6"/>
<polygon points="221.5,70.0 224.6,140.3 312.6,111.4" fill="#1a3147" stroke="#1a3147" stroke-width="0.6"/>
<polygon points="143.3,139.7 143.3,145.7 224.6,182.7" fill="#27486a" stroke="#27486a" stroke-width="0.6"/>
<polygon points="224.6,140.3 133.5,98.9 143.3,139.7" fill="#27486a" stroke="#27486a" stroke-width="0.6"/>
<polygon points="224.6,242.2 224.6,199.9 143.3,168.9" fill="#27486a" stroke="#27486a" stroke-width="0.6"/>
<polygon points="149.2,157.1 229.6,195.7 230.5,194.1" fill="#1b334a" stroke="#1b334a" stroke-width="0.6"/>
<polygon points="149.8,155.4 230.5,194.1 231.1,192.4" fill="#1f3a54" stroke="#1f3a54" stroke-width="0.6"/>
<polygon points="148.3,158.7 228.5,197.1 229.6,195.7" fill="#1a3147" stroke="#1a3147" stroke-width="0.6"/>
<polygon points="150.2,153.7 231.1,192.4 231.6,190.7" fill="#23405d" stroke="#23405d" stroke-width="0.6"/>
<polygon points="147.2,160.1 227.3,198.3 228.5,197.1" fill="#1a3147" stroke="#1a3147" stroke-width="0.6"/>
<polygon points="150.4,152.0 231.6,190.7 231.7,189.0" fill="#264666" stroke="#264666" stroke-width="0.6"/>
<polygon points="146.0,161.3 226.0,199.2 227.3,198.3" fill="#1a3147" stroke="#1a3147" stroke-width="0.6"/>
<polygon points="150.2,150.4 231.7,189.0 231.6,187.3" fill="#294b6d" stroke="#294b6d" stroke-width="0.6"/>
<polygon points="144.7,162.3 224.6,199.9 226.0,199.2" fill="#1a3147" stroke="#1a3147" stroke-width="0.6"/>
<polygon points="149.8,148.9 231.6,187.3 231.1,185.9" fill="#2b4f73" stroke="#2b4f73" stroke-width="0.6"/>
<polygon points="149.2,147.6 231.1,185.9 230.5,184.6" fill="#2c5277" stroke="#2c5277" stroke-width="0.6"/>
<polygon points="224.6,140.3 312.6,162.4 312.6,111.4" fill="#4885c1" stroke="#4885c1" stroke-width="0.6"/>
<polygon points="224.6,242.2 312.6,162.4 226.0,199.2" fill="#4885c1" stroke="#4885c1" stroke-width="0.6"/>
<polygon points="148.3,146.6 230.5,184.6 229.6,183.6" fill="#2d5379" stroke="#2d5379" stroke-width="0.6"/>
<polygon points="147.2,145.9 229.6,183.6 228.5,182.9" fill="#2d547a" stroke="#2d547a" stroke-width="0.6"/>
<polygon points="312.6,162.4 231.1,192.4 230.5,194.1" fill="#4885c1" stroke="#4885c1" stroke-width="0.6"/>
<polygon points="312.6,162.4 230.5,194.1 229.6,195.7" fill="#4885c1" stroke="#4885c1" stroke-width="0.6"/>
<polygon points="312.6,162.4 231.6,190.7 231.1,192.4" fill="#4885c1" stroke="#4885c1" stroke-width="0.6"/>
<polygon points="312.6,162.4 229.6,195.7 228.5,197.1" fill="#4885c1" stroke="#4885c1" stroke-width="0.6"/>
<polygon points="312.6,162.4 231.7,189.0 231.6,190.7" fill="#4885c1" stroke="#4885c1" stroke-width="0.6"/>
<polygon points="312.6,162.4 228.5,197.1 227.3,198.3" fill="#4885c1" stroke="#4885c1" stroke-width="0.6"/>
<polygon points="312.6,162.4 231.6,187.3 231.7,189.0" fill="#4885c1" stroke="#4885c1" stroke-width="0.6"/>
<polygon points="312.6,162.4 227.3,198.3 226.0,199.2" fill="#4885c1" stroke="#4885c1" stroke-width="0.6"/>
<polygon points="312.6,162.4 231.1,185.9 231.6,187.3" fill="#4885c1" stroke="#4885c1" stroke-width="0.6"/>
<polygon points="312.6,162.4 230.5,184.6 231.1,185.9" fill="#4885c1" stroke="#4885c1" stroke-width="0.6"/>
<polygon points="312.6,162.4 229.6,183.6 230.5,184.6" fill="#4885c1" stroke="#4885c1" stroke-width="0.6"/>
<polygon points="312.6,162.4 228.5,182.9 229.6,183.6" fill="#4885c1" stroke="#4885c1" stroke-width="0.6"/>
<polygon points="312.6,162.4 227.3,182.5 228.5,182.9" fill="#4885c1" stroke="#4885c1" stroke-width="0.6"/>
<polygon points="312.6,162.4 226.0,182.4 227.3,182.5" fill="#4885c1" stroke="#4885c1" stroke-width="0.6"/>
<polygon points="143.3,139.7 224.6,182.7 224.6,140.3" fill="#27486a" stroke="#27486a" stroke-width="0.6"/>
<polygon points="224.6,140.3 226.0,182.4 312.6,162.4" fill="#4885c1" stroke="#4885c1" stroke-width="0.6"/>
<polygon points="224.6,242.2 226.0,199.2 224.6,199.9" fill="#4885c1" stroke="#4885c1" stroke-width="0.6"/>
<polygon points="224.6,140.3 224.6,182.7 226.0,182.4" fill="#4885c1" stroke="#4885c1" stroke-width="0.6"/>
<polygon points="253.1,219.7 247.4,217.1 247.4,252.6" fill="#774f21" stroke="#774f21" stroke-width="0.6"/>
<polygon points="264.2,208.3 258.5,190.2 258.5,205.7" fill="#774f21" stroke="#774f21" stroke-width="0.6"/>
<polygon points="253.1,219.7 258.5,205.7 247.4,217.1" fill="#503516" stroke="#503516" stroke-width="0.6"/>
<polygon points="253.1,219.7 264.2,208.3 258.5,205.7" fill="#503516" stroke="#503516" stroke-width="0.6"/>
<polygon points="264.2,208.3 264.2,192.8 258.5,190.2" fill="#774f21" stroke="#774f21" stroke-width="0.6"/>
<polygon points="275.4,222.9 253.1,219.7 247.4,252.6" fill="#774f21" stroke="#774f21" stroke-width="0.6"/>
<polygon points="258.1,208.6 281.2,217.2 259.0,207.0" fill="#533717" stroke="#533717" stroke-width="0.6"/>
<polygon points="259.0,207.0 281.9,215.5 259.6,205.4" fill="#5f3f1a" stroke="#5f3f1a" stroke-width="0.6"/>
<polygon points="257.0,210.1 280.4,218.8 258.1,208.6" fill="#503516" stroke="#503516" stroke-width="0.6"/>
<polygon points="259.6,205.4 282.3,213.7 260.0,203.6" fill="#69461d" stroke="#69461d" stroke-width="0.6"/>
<polygon points="247.4,150.7 426.5,163.2 335.4,121.8" fill="#503516" stroke="#503516" stroke-width="0.6"/>
<polygon points="255.8,211.2 279.3,220.2 257.0,210.1" fill="#503516" stroke="#503516" stroke-width="0.6"/>
<polygon points="260.0,203.6 282.4,212.0 260.1,201.9" fill="#734c1f" stroke="#734c1f" stroke-width="0.6"/>
<polygon points="254.5,212.2 278.1,221.4 255.8,211.2" fill="#503516" stroke="#503516" stroke-width="0.6"/>
<polygon points="260.1,201.9 282.3,210.4 260.0,200.3" fill="#7b5222" stroke="#7b5222" stroke-width="0.6"/>
<polygon points="275.4,222.9 253.1,212.8 253.1,219.7" fill="#774f21" stroke="#774f21" stroke-width="0.6"/>
<polygon points="253.1,212.8 276.7,222.3 254.5,212.2" fill="#503516" stroke="#503516" stroke-width="0.6"/>
<polygon points="259.6,198.8 260.0,200.3 281.9,208.9" fill="#815624" stroke="#815624" stroke-width="0.6"/>
<polygon points="259.6,198.8 281.2,207.7 259.0,197.5" fill="#865925" stroke="#865925" stroke-width="0.6"/>
<polygon points="258.1,196.5 259.0,197.5 280.4,206.6" fill="#895b26" stroke="#895b26" stroke-width="0.6"/>
<polygon points="247.4,150.7 247.4,186.1 253.1,188.7" fill="#774f21" stroke="#774f21" stroke-width="0.6"/>
<polygon points="257.0,195.8 258.1,196.5 279.3,205.9" fill="#895b26" stroke="#895b26" stroke-width="0.6"/>
<polygon points="259.0,207.0 281.2,217.2 281.9,215.5" fill="#5f3f1a" stroke="#5f3f1a" stroke-width="0.6"/>
<polygon points="258.1,208.6 280.4,218.8 281.2,217.2" fill="#533717" stroke="#533717" stroke-width="0.6"/>
<polygon points="259.6,205.4 281.9,215.5 282.3,213.7" fill="#69461d" stroke="#69461d" stroke-width="0.6"/>
<polygon points="257.0,210.1 279.3,220.2 280.4,218.8" fill="#503516" stroke="#503516" stroke-width="0.6"/>
<polygon points="260.0,203.6 282.3,213.7 282.4,212.0" fill="#734c1f" stroke="#734c1f" stroke-width="0.6"/>
<polygon points="255.8,211.2 278.1,221.4 279.3,220.2" fill="#503516" stroke="#503516" stroke-width="0.6"/>
<polygon points="260.1,201.9 282.4,212.0 282.3,210.4" fill="#7b5222" stroke="#7b5222" stroke-width="0.6"/>
<polygon points="254.5,212.2 276.7,222.3 278.1,221.4" fill="#503516" stroke="#503516" stroke-width="0.6"/>
<polygon points="260.0,200.3 282.3,210.4 281.9,208.9" fill="#815624" stroke="#815624" stroke-width="0.6"/>
<polygon points="253.1,212.8 275.4,222.9 276.7,222.3" fill="#503516" stroke="#503516" stroke-width="0.6"/>
<polygon points="253.1,188.7 253.1,195.7 275.4,205.8" fill="#774f21" stroke="#774f21" stroke-width="0.6"/>
<polygon points="259.6,198.8 281.9,208.9 281.2,207.7" fill="#865925" stroke="#865925" stroke-width="0.6"/>
<polygon points="259.0,197.5 281.2,207.7 280.4,206.6" fill="#895b26" stroke="#895b26" stroke-width="0.6"/>
<polygon points="258.1,196.5 280.4,206.6 279.3,205.9" fill="#895b26" stroke="#895b26" stroke-width="0.6"/>
<polygon points="247.4,150.7 253.1,188.7 275.4,205.8" fill="#774f21" stroke="#774f21" stroke-width="0.6"/>
<polygon points="275.4,222.9 247.4,252.6 338.5,294.0" fill="#774f21" stroke="#774f21" stroke-width="0.6"/>
<polygon points="275.4,214.4 275.4,222.9 338.5,243.0" fill="#774f21" stroke="#774f21" stroke-width="0.6"/>
<polygon points="275.4,205.8 275.4,214.4 338.5,243.0" fill="#774f21" stroke="#774f21" stroke-width="0.6"/>
<polygon points="338.5,192.1 247.4,150.7 275.4,205.8" fill="#774f21" stroke="#774f21" stroke-width="0.6"/>
<polygon points="426.5,265.1 426.5,163.2 338.5,192.1" fill="#da913c" stroke="#da913c" stroke-width="0.6"/>
<polygon points="426.5,265.1 338.5,243.0 338.5,294.0" fill="#da913c" stroke="#da913c" stroke-width="0.6"/>
<polygon points="426.5,163.2 247.4,150.7 338.5,192.1" fill="#503516" stroke="#503516" stroke-width="0.6"/>
<polygon points="275.4,222.9 338.5,294.0 338.5,243.0" fill="#774f21" stroke="#774f21" stroke-width="0.6"/>
<polygon points="338.5,192.1 338.5,243.0 426.5,265.1" fill="#da913c" stroke="#da913c" stroke-width="0.6"/>
<polygon points="275.4,205.8 338.5,243.0 338.5,192.1" fill="#774f21" stroke="#774f21" stroke-width="0.6"/>
<text x="280.0" y="310" text-anchor="middle" font-family="sans-serif" font-size="12" fill="#5a6068">Genomskärning: försänkning, genomgående hål och sexkantsficka för muttern</text>
</svg>